<svg xmlns="http://www.w3.org/2000/svg" xmlns:xlink="http://www.w3.org/1999/xlink" viewBox="0 0 476.43 144.09"><defs><style>.cls-1{fill:#231f20;}.cls-2{fill:#007dc5;}.cls-3{opacity:0.4;}.cls-4{fill:url(#linear-gradient);}.cls-5{fill:url(#linear-gradient-2);}.cls-6{fill:url(#linear-gradient-3);}.cls-7{fill:url(#linear-gradient-4);}.cls-8{fill:url(#linear-gradient-5);}.cls-9{fill:url(#linear-gradient-6);}</style><linearGradient id="linear-gradient" x1="-12.24" y1="45.91" x2="84.62" y2="108.99" gradientUnits="userSpaceOnUse"><stop offset="0" stop-color="#00b3f0"/><stop offset="1" stop-color="#17479e"/></linearGradient><linearGradient id="linear-gradient-2" x1="21.23" y1="-5.48" x2="112.74" y2="54.12" xlink:href="#linear-gradient"/><linearGradient id="linear-gradient-3" x1="5.07" y1="19.33" x2="96.58" y2="78.93" xlink:href="#linear-gradient"/><linearGradient id="linear-gradient-4" x1="42.95" y1="-11.82" x2="209.51" y2="114.68" gradientUnits="userSpaceOnUse"><stop offset="0" stop-color="#00aeef"/><stop offset="1" stop-color="#eff9fe"/></linearGradient><linearGradient id="linear-gradient-5" x1="14.94" y1="45.84" x2="169.46" y2="163.19" xlink:href="#linear-gradient-4"/><linearGradient id="linear-gradient-6" x1="33.19" y1="21.69" x2="187.77" y2="139.09" xlink:href="#linear-gradient-4"/></defs><g id="Layer_2" data-name="Layer 2"><g id="Layer_1-2" data-name="Layer 1"><path class="cls-1" d="M203.78,73.57h-.88L181,23.4H187l16.48,39,16.34-39h5.85Z"/><path class="cls-1" d="M258.52,72.7,252.67,59H230.61L224.76,72.7h-5.58l22.13-50.18h.87L264.31,72.7ZM241.64,33.35l-9.08,21.19h18.16Z"/><path class="cls-1" d="M308.28,73.64l-32-38.34V72.7h-5.38v-50l1.08-.26,31.61,37.73V23.4H309v50Z"/><path class="cls-1" d="M336.89,28.24V72.7h-5.38V28.24H315V23.4H353.3v4.84Z"/><path class="cls-1" d="M387.46,72.7,381.61,59H359.55L353.7,72.7h-5.58l22.12-50.18h.88L393.25,72.7ZM370.58,33.35,361.5,54.54h18.16Z"/><path class="cls-1" d="M438.07,48.28V67.72a28.9,28.9,0,0,1-18,5.78c-13.65,0-26.36-10-26.36-25.42s13.05-25.49,25.76-25.49c8.14,0,13.25,2.35,18.43,6L435,32.81a27.14,27.14,0,0,0-15.53-5.38c-12.65,0-20,9.76-20,20.65a20.38,20.38,0,0,0,20.58,20.65,23,23,0,0,0,12.58-3.36v-12H419.64v-5Z"/><path class="cls-1" d="M447.5,72.7V23.4h28.85v4.84H452.88v17H474V50.1H452.88V67.86h23.47V72.7Z"/><path class="cls-2" d="M198.27,99.45c-.82,0-1.89-.07-2.71-.14v8.47H193V84.06a41.32,41.32,0,0,1,5.48-.39c6.18,0,9.22,3.53,9.22,7.61C207.65,96.08,204.15,99.45,198.27,99.45ZM198.83,86a16.3,16.3,0,0,0-3.27.26V97a26,26,0,0,0,2.87.2c4.48,0,6.41-2.58,6.41-5.68C204.84,88.67,202.78,86,198.83,86Z"/><path class="cls-2" d="M216.05,107.78v-24h14v2.35h-11.4v8.27h10.26V96.8H218.66v8.62h11.4v2.36Z"/><path class="cls-2" d="M252.65,107.78l-6.37-9.44c-.53,0-1.05.06-1.6.06-.79,0-1.93,0-2.72-.06v9.44h-2.61V84.06a41.69,41.69,0,0,1,5.52-.39c6.18,0,9.21,3.07,9.21,7.18a7,7,0,0,1-5.22,6.93l7,10ZM245.26,86a16.61,16.61,0,0,0-3.3.26V96c.79.09,2,.16,2.91.16,4.48,0,6.41-2.06,6.41-5.16C251.28,88.21,249.18,86,245.26,86Z"/><path class="cls-2" d="M266.66,86.18V94.9h10.25v2.36H266.66v10.52H264v-24h14v2.35Z"/><path class="cls-2" d="M297.42,108.17c-6.47,0-11.82-5.16-11.82-12.35a12.11,12.11,0,0,1,12-12.38c6.47,0,11.83,5.19,11.83,12.38A12.09,12.09,0,0,1,297.42,108.17Zm.13-22.38c-5.32,0-9.11,4.38-9.11,10s3.79,10,9.11,10,9.08-4.38,9.08-10S302.84,85.79,297.55,85.79Z"/><path class="cls-2" d="M332.4,107.78,326,98.34c-.52,0-1,.06-1.6.06-.78,0-1.92,0-2.71-.06v9.44h-2.61V84.06a41.57,41.57,0,0,1,5.52-.39c6.17,0,9.21,3.07,9.21,7.18a7,7,0,0,1-5.22,6.93l6.95,10ZM325,86a16.61,16.61,0,0,0-3.3.26V96c.79.09,2,.16,2.91.16,4.47,0,6.4-2.06,6.4-5.16C331,88.21,328.94,86,325,86Z"/><path class="cls-2" d="M364.35,107.78,364,90.85l-8.5,14.48h-.36l-8.56-14.51-.29,17h-2.65l.92-24.34.49-.07,10.39,18,10.12-18,.53.07.91,24.34Z"/><path class="cls-2" d="M394.13,107.78l-2.84-6.63H380.58l-2.85,6.63H375l10.75-24.37h.42l10.75,24.37Zm-8.2-19.11L381.52,99h8.82Z"/><path class="cls-2" d="M423.27,108.23,407.72,89.61v18.17H405.1V83.5l.53-.13L421,101.7V83.83h2.62v24.31Z"/><path class="cls-2" d="M445.91,108.17c-7.39,0-12.71-5.16-12.71-12.35s5.45-12.38,12.71-12.38a15.35,15.35,0,0,1,7.9,2.29L452.73,88a15.14,15.14,0,0,0-7.05-2.06c-6.05,0-9.64,4.28-9.64,9.93s3.82,9.9,9.87,9.9a15.14,15.14,0,0,0,7-2.06l.85,2.22A15.35,15.35,0,0,1,445.91,108.17Z"/><path class="cls-2" d="M462.33,107.78v-24h14v2.35H465v8.27h10.26V96.8H465v8.62h11.4v2.36Z"/><g class="cls-3"><path class="cls-1" d="M195.5,142.69a4.87,4.87,0,0,1-2.76-.88l.51-.91a4.14,4.14,0,0,0,2.3.84,1.63,1.63,0,0,0,1.8-1.66c0-.83-.33-1.33-1.89-2s-2.26-1.47-2.26-2.61a2.72,2.72,0,0,1,2.91-2.6,3.8,3.8,0,0,1,2.12.65l-.47.88a3.08,3.08,0,0,0-1.71-.58,1.61,1.61,0,0,0-1.81,1.6c0,.66.45,1.19,1.62,1.73,2,.89,2.55,1.56,2.55,2.83A2.77,2.77,0,0,1,195.5,142.69Z"/><path class="cls-1" d="M204.61,133.94v8.59h-1v-8.59h-3.18V133h7.39v.93Z"/><path class="cls-1" d="M215.57,142.53,213,138.78l-.64,0-1.08,0v3.75h-1V133.1a17,17,0,0,1,2.2-.16c2.46,0,3.67,1.22,3.67,2.86a2.77,2.77,0,0,1-2.08,2.76l2.77,4Zm-2.94-8.65a6.69,6.69,0,0,0-1.32.1v3.87a10.63,10.63,0,0,0,1.16.07c1.78,0,2.55-.82,2.55-2S214.19,133.88,212.63,133.88Z"/><path class="cls-1" d="M223.35,142.69a4.73,4.73,0,0,1-4.71-4.91,4.83,4.83,0,0,1,4.8-4.93,4.76,4.76,0,0,1,4.71,4.93A4.81,4.81,0,0,1,223.35,142.69Zm.05-8.9a4,4,0,1,0,3.62,4A3.72,3.72,0,0,0,223.4,133.79Z"/><path class="cls-1" d="M238.24,142.72l-6.19-7.41v7.22h-1v-9.65l.21-.06,6.11,7.3V133h1v9.67Z"/><path class="cls-1" d="M249.82,137.82v3.75a5.56,5.56,0,0,1-3.48,1.12,4.92,4.92,0,1,1-.12-9.84,5.63,5.63,0,0,1,3.56,1.16l-.54.82a5.27,5.27,0,0,0-3-1,3.79,3.79,0,0,0-3.86,4,3.94,3.94,0,0,0,4,4,4.45,4.45,0,0,0,2.43-.65v-2.33h-2.52v-1Z"/><path class="cls-1" d="M252.75,142.53V133h5.58v.93h-4.54v3.29h4.09v.94h-4.09v3.43h4.54v.93Z"/><path class="cls-1" d="M266.64,142.53l-2.54-3.75-.64,0-1.08,0v3.75h-1V133.1a17,17,0,0,1,2.2-.16c2.46,0,3.67,1.22,3.67,2.86a2.77,2.77,0,0,1-2.08,2.76l2.77,4Zm-2.94-8.65a6.69,6.69,0,0,0-1.32.1v3.87a10.63,10.63,0,0,0,1.16.07c1.78,0,2.55-.82,2.55-2S265.26,133.88,263.7,133.88Z"/><path class="cls-1" d="M269.91,144.09l-.15-.2a2.68,2.68,0,0,0,.84-1.29.67.67,0,0,1-.68-.66.64.64,0,0,1,.64-.64.71.71,0,0,1,.7.79A2.53,2.53,0,0,1,269.91,144.09Z"/><path class="cls-1" d="M286.3,142.53l-.15-6.73-3.38,5.76h-.14l-3.41-5.77-.11,6.74h-1.05l.36-9.68.19,0,4.14,7.18,4-7.18.21,0,.36,9.68Z"/><path class="cls-1" d="M294.79,142.69a4.73,4.73,0,0,1-4.7-4.91,4.82,4.82,0,0,1,4.79-4.93,4.75,4.75,0,0,1,4.71,4.93A4.81,4.81,0,0,1,294.79,142.69Zm.06-8.9a4,4,0,1,0,3.61,4A3.72,3.72,0,0,0,294.85,133.79Z"/><path class="cls-1" d="M307.76,142.53l-2.53-3.75-.64,0-1.08,0v3.75h-1V133.1a16.85,16.85,0,0,1,2.2-.16c2.46,0,3.66,1.22,3.66,2.86a2.77,2.77,0,0,1-2.08,2.76l2.77,4Zm-2.94-8.65a6.58,6.58,0,0,0-1.31.1v3.87a10.48,10.48,0,0,0,1.16.07c1.78,0,2.55-.82,2.55-2S306.38,133.88,304.82,133.88Z"/><path class="cls-1" d="M311.29,142.53V133h5.58v.93h-4.54v3.29h4.09v.94h-4.09v3.43h4.54v.93Z"/><path class="cls-1" d="M329.22,142.53l-2.54-3.75-.63,0-1.08,0v3.75h-1V133.1a16.69,16.69,0,0,1,2.19-.16c2.46,0,3.67,1.22,3.67,2.86a2.77,2.77,0,0,1-2.08,2.76l2.77,4Zm-2.94-8.65a6.52,6.52,0,0,0-1.31.1v3.87a10.3,10.3,0,0,0,1.15.07c1.78,0,2.55-.82,2.55-2S327.84,133.88,326.28,133.88Z"/><path class="cls-1" d="M332.75,142.53V133h5.58v.93h-4.54v3.29h4.08v.94h-4.08v3.43h4.54v.93Z"/><path class="cls-1" d="M343.37,142.69a4.85,4.85,0,0,1-2.76-.88l.51-.91a4.14,4.14,0,0,0,2.3.84,1.63,1.63,0,0,0,1.79-1.66c0-.83-.32-1.33-1.88-2s-2.27-1.47-2.27-2.61a2.73,2.73,0,0,1,2.92-2.6,3.83,3.83,0,0,1,2.12.65l-.47.88a3.09,3.09,0,0,0-1.72-.58,1.61,1.61,0,0,0-1.81,1.6c0,.66.46,1.19,1.63,1.73,2,.89,2.55,1.56,2.55,2.83A2.77,2.77,0,0,1,343.37,142.69Z"/><path class="cls-1" d="M349,142.53V133h1v9.52Z"/><path class="cls-1" d="M353.33,142.53V133h1v8.59h4.54v.93Z"/><path class="cls-1" d="M361.36,142.53V133h1v9.52Z"/><path class="cls-1" d="M365.66,142.53V133h5.58v.93H366.7v3.29h4.09v.94H366.7v3.43h4.54v.93Z"/><path class="cls-1" d="M381.47,142.72l-6.19-7.41v7.22h-1v-9.65l.21-.06,6.11,7.3V133h1v9.67Z"/><path class="cls-1" d="M388.3,133.94v8.59h-1v-8.59h-3.18V133h7.39v.93Z"/><path class="cls-1" d="M400.3,142.61c-.78,0-1.6-.08-2.31-.15V133.1a17.4,17.4,0,0,1,2.21-.16c2.27,0,3.32,1.21,3.32,2.44a2.13,2.13,0,0,1-1.68,2.23,2.26,2.26,0,0,1,1.93,2.34C403.77,141.3,402.55,142.61,400.3,142.61Zm0-8.78a7.35,7.35,0,0,0-1.27.1v3.29c.24,0,.72,0,1.12,0,1.68,0,2.29-.84,2.29-1.73S401.75,133.83,400.3,133.83Zm-.12,4.23c-.34,0-.92,0-1.15,0v3.51a8.65,8.65,0,0,0,1.41.1c1.47,0,2.24-.8,2.24-1.87C402.68,138.93,401.83,138.06,400.18,138.06Z"/><path class="cls-1" d="M409.81,142.69a3.29,3.29,0,0,1-3.58-3.57V133h1v6c0,1.91,1,2.71,2.54,2.71a2.39,2.39,0,0,0,2.56-2.71v-6h1v6.11A3.37,3.37,0,0,1,409.81,142.69Z"/><path class="cls-1" d="M418.53,142.69a4.85,4.85,0,0,1-2.76-.88l.51-.91a4.14,4.14,0,0,0,2.3.84,1.63,1.63,0,0,0,1.79-1.66c0-.83-.32-1.33-1.88-2s-2.26-1.47-2.26-2.61a2.72,2.72,0,0,1,2.91-2.6,3.83,3.83,0,0,1,2.12.65l-.47.88a3.09,3.09,0,0,0-1.72-.58,1.6,1.6,0,0,0-1.8,1.6c0,.66.45,1.19,1.62,1.73,2,.89,2.55,1.56,2.55,2.83A2.77,2.77,0,0,1,418.53,142.69Z"/><path class="cls-1" d="M424.19,142.53V133h1v9.52Z"/><path class="cls-1" d="M435.72,142.72l-6.19-7.41v7.22h-1v-9.65l.21-.06,6.11,7.3V133h1v9.67Z"/><path class="cls-1" d="M439,142.53V133h5.58v.93h-4.54v3.29h4.09v.94h-4.09v3.43h4.54v.93Z"/><path class="cls-1" d="M449.66,142.69a4.82,4.82,0,0,1-2.75-.88l.5-.91a4.14,4.14,0,0,0,2.3.84,1.63,1.63,0,0,0,1.8-1.66c0-.83-.33-1.33-1.89-2s-2.26-1.47-2.26-2.61a2.72,2.72,0,0,1,2.91-2.6,3.78,3.78,0,0,1,2.12.65l-.47.88a3.05,3.05,0,0,0-1.71-.58,1.61,1.61,0,0,0-1.81,1.6c0,.66.46,1.19,1.63,1.73,2,.89,2.54,1.56,2.54,2.83A2.77,2.77,0,0,1,449.66,142.69Z"/><path class="cls-1" d="M457.3,142.69a4.82,4.82,0,0,1-2.75-.88l.5-.91a4.14,4.14,0,0,0,2.3.84,1.63,1.63,0,0,0,1.8-1.66c0-.83-.33-1.33-1.89-2s-2.26-1.47-2.26-2.61a2.72,2.72,0,0,1,2.91-2.6,3.78,3.78,0,0,1,2.12.65l-.47.88a3.05,3.05,0,0,0-1.71-.58,1.61,1.61,0,0,0-1.81,1.6c0,.66.46,1.19,1.63,1.73,2,.89,2.55,1.56,2.55,2.83A2.78,2.78,0,0,1,457.3,142.69Z"/><path class="cls-1" d="M462.9,142.53V133h5.58v.93h-4.54v3.29H468v.94h-4.08v3.43h4.54v.93Z"/><path class="cls-1" d="M473.52,142.69a4.87,4.87,0,0,1-2.76-.88l.51-.91a4.14,4.14,0,0,0,2.3.84,1.63,1.63,0,0,0,1.8-1.66c0-.83-.33-1.33-1.89-2s-2.26-1.47-2.26-2.61a2.72,2.72,0,0,1,2.91-2.6,3.8,3.8,0,0,1,2.12.65l-.47.88a3.08,3.08,0,0,0-1.71-.58,1.61,1.61,0,0,0-1.81,1.6c0,.66.45,1.19,1.62,1.73,2,.89,2.55,1.56,2.55,2.83A2.77,2.77,0,0,1,473.52,142.69Z"/></g><polygon class="cls-4" points="28.21 27.12 0 27.12 51.7 132.68 79.91 132.68 28.21 27.12"/><polygon class="cls-5" points="106.58 48.03 78.38 48.03 68.11 27.12 96.32 27.12 106.58 48.03"/><polygon class="cls-6" points="91.51 86.72 63.3 86.72 34.06 27.12 62.26 27.12 91.51 86.72"/><polygon class="cls-7" points="169.89 107.63 121.66 9.35 121.66 9.35 117.07 0 88.86 0 137.09 98.28 137.09 98.28 141.68 107.63 169.89 107.63"/><polygon class="cls-8" points="63.3 86.72 91.51 86.72 101.77 107.63 73.56 107.63 63.3 86.72"/><polygon class="cls-9" points="78.38 48.03 106.58 48.03 135.83 107.63 107.62 107.63 78.38 48.03"/></g></g></svg>